<svg xmlns="http://www.w3.org/2000/svg" xmlns:xlink="http://www.w3.org/1999/xlink" width="4520" height="1000" version="1.1" viewBox="0 0 4520 1000"><title>AvenLogoPlain</title><desc>Created with Sketch.</desc><defs><linearGradient id="linearGradient-1" x1="50%" x2="50%" y1="3.243%" y2="100%"><stop offset="0%" stop-color="#082B49"/><stop offset="100%" stop-color="#082B49"/></linearGradient></defs><g id="Page-1" fill="none" fill-rule="evenodd" stroke="none" stroke-width="1"><g id="AvenLogoPlain" fill="url(#linearGradient-1)"><polygon id="Combined-Shape-path" points="3520 0 3220 0 3120 200 2730 200 2630 400 3020 400 2920.239 599.999 2530 600 2430 800 2820 800 2720 1000 3020 1000"/><polygon id="Combined-Shape-path" points="2180 0 1680 1000 1980 1000 2480 0"/><polygon id="Combined-Shape-path" points="1000 0 700 0 1200 1000 1500 1000"/><polygon id="Combined-Shape-path" points="1580 500 1780 100 1380 100"/><polygon id="Combined-Shape-path" points="3920 500 4120 100 3720 100"/><polygon id="Combined-Shape-path" points="3620 500 3420 900 3820 900"/><polygon id="Combined-Shape-path" points="600 500 400 900 800 900"/><polygon id="Combined-Shape-path" points=".07 0 .07 1000 500.07 0"/><polygon id="Combined-Shape-path" points="4020 0 4020 1000 4520 0" transform="translate(4270.000000, 500.000000) scale(-1, -1) translate(-4270.000000, -500.000000)"/></g></g></svg>